<svg xmlns="http://www.w3.org/2000/svg" viewBox="0 0 180 180" width="180" height="180" role="img" aria-label="Tia Clara"><title>Tia Clara</title><rect width="180" height="180" fill="#1E3B33"/><path fill="#F4EEE3" fill-rule="evenodd" d="M40.18,84.02 A49.82,49.82 0 0 1 139.82,84.02 V123.88 A21.92,21.92 0 0 1 117.9,145.8 H62.1 A21.92,21.92 0 0 1 40.18,123.88 Z M80.53,52.14 a9.47,9.47 0 1 0 18.93,0 a9.47,9.47 0 1 0 -18.93,0 Z M94.32504795186709 133.7651145513198Q85.99971837861237 133.7651145513198 79.8790023100242 130.4095207796734Q73.75828624143604 127.05392700802695 70.41936375312561 120.62775926461336Q67.08044126481518 114.20159152119976 67.08044126481518 104.9810486073444Q67.08044126481518 98.34158835437353 69.01195257098217 92.93823516298438Q70.94346387714918 87.53488197159524 74.60352035988383 83.67550800792013Q78.26357684261848 79.81613404424502 83.38635922347146 77.74116473110557Q88.50914160432444 75.66619541796612 94.88996614218945 75.66619541796612Q98.88786160009474 75.66619541796612 101.88576810394775 76.73958525591186Q104.88367460780076 77.8129750938576 107.39494244177249 79.72125432671484L108.38138032236446 75.62952830582307H114.29923474637934L117.35529921712842 95.6044079899936L109.67210897551807 97.0830245763022Q108.11774513294121 92.47585109240836 106.1012447081603 89.80767290429668Q104.0847442833794 87.139494716185 101.62884676925148 85.94997999351769Q99.17294925512356 84.76046527085037 96.27426564242336 84.76046527085037Q92.05302664697886 84.76046527085037 89.31230111725574 86.9237705897161Q86.57157558753264 89.08707590858182 85.23821599154219 93.16268762047824Q83.90485639555175 97.23829933237465 83.90485639555175 102.92558097712012Q83.90485639555175 108.7196613347299 85.13328954412367 112.58234922332045Q86.36172269269561 116.44503711191099 88.47117153275723 118.70676781869922Q90.58062037281884 120.96849852548745 93.20360495887346 121.90517348195866Q95.82658954492807 122.84184843842986 98.59787189009344 122.84184843842986Q101.97549002351633 122.84184843842986 104.78082440271311 121.88921297293001Q107.58615878190989 120.93657750743016 109.72684687139488 119.47262468243508Q111.86753496087987 118.00867185744002 113.18402399499251 116.55853727452981L118.1009873066134 123.0253177179831Q116.75737734541957 124.70415430889038 114.63170235821076 126.59139121457875Q112.50602737100195 128.47862812026713 109.59456072867587 130.10388428462664Q106.6830940863498 131.72914044898616 102.86621814654643 132.747127500153Q99.04934220674306 133.7651145513198 94.32504795186709 133.7651145513198Z"/></svg>
